
    <svg id="svg_root" viewBox="0 0 300 300" xmlns="http://www.w3.org/2000/svg">
      <rect id="svg_frame" width="300" height="300" style="fill:none;stroke-width:10" stroke="none"></rect>
      <!-- <circle id="svg_circle_frame" cx="150" cy="150" r="148" style="fill:none;stroke-width:5" stroke="black"/> -->
      <g transform="translate(8, 40)">
        <g transform="matrix(1.3333333,0,0,-1.3333333,0,199.99999)" id="g10">
          <g transform="scale(0.095)">
            <path id="svg_logo" fill="#ffffff" style="fill-opacity:1;fill-rule:nonzero;stroke:none;stroke-width:0.79978472" d="m 1735.94,608.49687 c 0,38.89593 40.941,53.21687 107.491,60.38695 55.2652,6.13914 99.2853,15.35507 127.9496,33.7789 v -49.13077 c 0,-58.64022 -49.3706,-87.16455 -115.2809,-93.67799 -26.8888,2.49933 -55.0253,4.84269 -84.2414,6.98213 -22.7299,8.66966 -35.9183,23.40009 -35.9183,41.66078 z M 461.48704,591.09515 h 283.55808 l 23.26574,-68.80948 C 646.26531,500.07325 524.76681,470.81552 407.55436,433.93505 Z M 602.76101,1008.7364 702.04709,716.99567 H 503.45974 Z M 1233.3232,862.35414 c 74.732,0 135.1237,-67.56661 135.1237,-151.49682 0,-59.35602 -31.7914,-110.48307 -77.6991,-134.22627 -34.5746,-1.15649 -69.5972,-2.74967 -104.9637,-4.81151 -51.1783,20.68164 -87.5764,73.93291 -87.5764,139.03778 0,85.98246 60.3917,151.49682 135.1155,151.49682 z m 864.1035,-333.2423 c -0.072,1.93708 -0.1439,3.85896 -0.1439,5.67047 v 274.34536 c 0,41.96311 -16.3717,180.15792 -230.3141,180.15792 -138.1948,0 -234.4248,-74.7271 -247.7333,-175.0441 h 135.1316 c 12.2848,45.04468 67.5659,66.5389 115.6809,66.5389 60.3838,0 96.2061,-22.52513 96.2061,-50.15851 0,-42.98843 -62.4392,-53.23607 -150.4715,-61.42107 -116.6886,-10.23163 -215.9899,-40.94257 -215.9899,-159.68821 0,-11.79363 1.1837,-22.90024 3.2552,-33.4598 -32.3513,1.17169 -65.5504,2.03066 -99.4852,2.53052 V 1210.3941 H 1368.4469 V 925.81466 c -40.941,38.90154 -94.1826,61.42347 -155.5981,61.42347 -137.1711,0 -250.79646,-118.73604 -250.79646,-275.36588 0,-58.3403 16.0277,-111.482 43.24426,-155.14225 -33.88676,-3.7182 -67.91766,-7.96666 -102.02046,-12.74697 L 688.73788,1159.2078 H 517.79029 L 245.16046,376.71605 C 165.53549,345.41168 88.946415,310.13957 16.762722,270.71018 366.24067,423.18755 1228.0367,629.60079 2203.4541,503.15082 c -4.6546,5.16981 -42.4765,15.02716 -106.0274,25.96102"></path>
          </g>
        </g>
      </g>
      <g id="svg_subtext" fill="#ffffff" transform="translate(145, 215) scale(0.481) "><path d="M47-50L37-50L37-19C37-18 37-17 37-16C36-10 33-6 26-6C20-6 16-10 16-16C16-17 16-18 16-19L16-50L6-50L6-20C6-18 6-17 6-14C7-6 12 1 26 1C40 1 46-6 47-14C47-17 47-18 47-20ZM68-15L80 0L93 0L75-21L92-38L80-38L65-21L65-53L55-53L55 0L65 0L65-12ZM117-39C114-39 112-38 110-37L107-31L107-38L97-38L97 0L107 0L107-18C107-28 111-32 119-31L119-39C119-39 118-39 117-39ZM147 0L156 0C156-4 156-7 156-10L156-22C156-24 156-26 155-28C155-35 151-39 140-39C131-39 124-34 124-26L133-26C134-30 136-32 140-32C144-32 145-30 146-28C146-26 146-25 146-24L146-23L143-23C129-23 122-19 122-10C122-3 128 1 135 1C138 1 141 0 144-2L146-6ZM138-6C135-6 133-8 133-11C133-16 138-18 146-17L146-14C146-9 142-6 138-6ZM170-53C167-53 164-50 164-47C164-44 167-42 170-42C173-42 175-44 175-47C175-50 173-53 170-53ZM175 0L175-38L165-38L165 0ZM220-29C219-35 214-39 206-39C202-39 200-39 197-37L194-32L194-38L184-38L184 0L194 0L194-17C194-28 198-32 203-32C207-32 210-30 210-26C210-24 210-22 210-20L210 0L220 0L220-22C220-25 220-27 220-29ZM264-20C264-30 257-39 246-39C234-39 226-31 226-19C226-6 234 1 245 1C254 1 261-4 263-12L253-12C252-8 249-6 245-6C240-6 237-8 236-17L263-17C264-18 264-19 264-20ZM245-32C250-32 253-29 253-23L236-23C237-29 241-32 245-32Z"></path></g>
    </svg>
  